<?xml version="1.0" standalone="no"?>
<!DOCTYPE svg PUBLIC "-//W3C//DTD SVG 20010904//EN"
 "http://www.w3.org/TR/2001/REC-SVG-20010904/DTD/svg10.dtd">
<svg version="1.0" xmlns="http://www.w3.org/2000/svg"
 width="1137.000000pt" height="670.000000pt" viewBox="0 0 1137.000000 670.000000"
 preserveAspectRatio="xMidYMid meet">

<g transform="translate(0.000000,670.000000) scale(0.100000,-0.100000)"
fill="#000000" stroke="none">
<path d="M1485 5659 c-141 -21 -297 -135 -364 -267 -63 -125 -61 -89 -61
-1064 0 -950 3 -1016 50 -1203 83 -333 257 -559 533 -695 202 -99 394 -133
635 -112 218 19 384 63 547 145 374 187 565 506 565 942 0 513 -289 933 -751
1090 -114 39 -226 55 -388 55 -111 0 -152 3 -167 14 -18 14 -19 33 -25 353 -5
315 -7 342 -27 397 -70 188 -222 317 -409 345 -39 6 -73 10 -75 10 -2 -1 -30
-5 -63 -10z"/>
<path d="M4180 5659 c-187 -31 -352 -203 -389 -403 -8 -41 -11 -441 -11 -1281
0 -1185 1 -1224 20 -1299 62 -244 250 -388 486 -373 73 4 97 11 161 42 125 62
214 171 260 320 17 57 18 125 18 1315 0 1392 5 1293 -65 1429 -92 180 -287
282 -480 250z"/>
<path d="M7320 4715 c-183 -29 -355 -113 -481 -235 -297 -289 -318 -700 -53
-1026 81 -99 77 -122 -26 -192 -175 -119 -239 -237 -227 -422 23 -344 308
-530 813 -530 194 0 399 46 564 127 170 84 286 226 342 418 20 69 23 102 23
245 0 157 -2 169 -29 240 -46 120 -108 219 -206 325 -66 71 -61 91 43 169 116
87 160 158 176 283 33 264 -134 478 -441 567 -156 45 -336 56 -498 31z"/>
<path d="M9400 4719 c-82 -10 -217 -52 -295 -91 -376 -189 -545 -617 -385
-974 30 -67 86 -153 144 -222 25 -31 36 -54 36 -76 0 -36 -13 -50 -103 -110
-133 -89 -196 -194 -205 -343 -22 -387 312 -614 866 -590 147 6 290 34 414 81
120 45 191 89 274 172 129 127 194 307 194 539 0 127 -15 197 -65 302 -41 88
-73 135 -159 237 -36 42 -66 81 -66 86 0 25 20 47 89 102 147 115 176 173 176
354 0 119 0 121 -37 196 -123 248 -486 387 -878 337z"/>
<path d="M5575 4708 c-131 -25 -274 -133 -338 -256 -69 -131 -67 -104 -67
-939 0 -521 3 -768 11 -805 36 -168 157 -312 319 -379 46 -20 73 -23 170 -23
100 -1 122 2 170 23 124 55 232 157 281 267 49 109 49 110 49 905 0 463 -4
767 -10 800 -37 197 -211 373 -404 408 -69 13 -111 13 -181 -1z"/>
<path d="M5157 1669 c-287 -68 -334 -476 -69 -606 49 -24 68 -28 142 -27 93 0
146 19 211 74 l34 29 -22 22 -22 22 -56 -39 c-50 -34 -65 -39 -125 -42 -82 -5
-124 8 -177 53 -135 115 -106 358 51 431 86 40 184 28 262 -31 l35 -27 25 23
24 23 -20 21 c-29 31 -98 63 -160 75 -61 12 -81 11 -133 -1z"/>
<path d="M8212 1669 c-241 -47 -336 -357 -165 -540 62 -67 128 -93 228 -93
104 0 167 26 233 98 59 66 82 128 82 226 0 92 -35 175 -98 232 -51 46 -83 63
-150 77 -59 12 -69 12 -130 0z m139 -71 c51 -15 114 -70 141 -121 11 -23 23
-69 26 -103 12 -157 -92 -274 -242 -274 -76 0 -129 24 -178 78 -92 102 -88
263 10 361 67 66 151 87 243 59z"/>
<path d="M1171 1373 c-74 -164 -138 -306 -143 -315 -7 -16 -4 -18 27 -18 35 0
37 1 75 85 l39 85 165 0 c121 0 167 -3 173 -12 4 -7 22 -44 39 -83 30 -67 33
-70 69 -73 32 -3 36 -1 31 15 -3 10 -66 151 -139 313 l-134 295 -34 3 -35 3
-133 -298z m240 49 l66 -147 -135 -3 c-74 -1 -137 -1 -139 2 -3 3 26 72 63
155 37 83 70 148 73 145 3 -3 36 -72 72 -152z"/>
<path d="M2010 1356 l0 -316 35 0 35 0 0 109 0 109 118 4 c95 4 126 9 165 28
154 73 150 291 -6 356 -31 13 -80 18 -194 22 l-153 4 0 -316z m333 221 c40
-26 60 -64 60 -113 0 -53 -24 -91 -74 -116 -26 -14 -59 -18 -141 -18 l-108 0
0 136 0 136 118 -3 c91 -3 124 -8 145 -22z"/>
<path d="M2840 1356 l0 -316 35 0 35 0 0 109 0 109 113 3 c98 4 119 7 170 32
81 40 111 92 105 186 -4 83 -33 127 -105 162 -42 20 -67 24 -200 27 l-153 4 0
-316z m320 222 c25 -13 51 -34 57 -48 19 -37 16 -101 -6 -136 -30 -50 -74 -64
-195 -64 l-106 0 0 135 0 135 103 0 c87 0 110 -4 147 -22z"/>
<path d="M3665 1657 c-3 -7 -4 -147 -3 -312 l3 -300 210 0 210 0 0 30 0 30
-177 3 -178 2 0 280 0 280 -30 0 c-17 0 -33 -6 -35 -13z"/>
<path d="M4457 1664 c-4 -4 -7 -146 -7 -316 l0 -309 38 3 37 3 0 310 0 310
-30 3 c-17 2 -34 0 -38 -4z"/>
<path d="M6034 1615 c-13 -31 -76 -170 -139 -309 -63 -140 -115 -257 -115
-260 0 -3 15 -6 34 -6 32 0 35 3 71 85 l38 85 170 -2 170 -3 36 -82 35 -83 39
0 c21 0 36 3 34 8 -2 4 -66 145 -142 315 l-139 307 -33 0 c-32 0 -36 -4 -59
-55z m130 -189 c36 -82 65 -151 62 -153 -2 -2 -64 -2 -138 -1 l-136 3 45 100
c25 55 56 124 69 154 13 30 26 52 28 50 2 -2 34 -71 70 -153z"/>
<path d="M6640 1635 l0 -35 105 0 105 0 0 -280 0 -280 35 0 35 0 0 280 0 280
105 0 105 0 0 35 0 35 -245 0 -245 0 0 -35z"/>
<path d="M7500 1355 l0 -315 35 0 35 0 0 315 0 315 -35 0 -35 0 0 -315z"/>
<path d="M8980 1355 l0 -315 30 0 30 0 2 256 3 256 200 -256 c174 -222 204
-255 228 -256 l27 0 0 316 0 315 -32 -3 -33 -3 -5 -244 -5 -243 -193 246
c-174 222 -196 246 -223 246 l-29 0 0 -315z"/>
<path d="M9990 1648 c-63 -32 -90 -77 -90 -149 0 -47 5 -63 26 -89 34 -40 86
-66 171 -86 91 -21 126 -37 151 -69 26 -33 27 -55 7 -95 -22 -42 -63 -60 -137
-60 -62 0 -128 23 -184 65 -19 14 -22 13 -43 -9 l-22 -24 35 -27 c81 -62 207
-88 298 -61 132 38 182 187 92 272 -32 31 -63 43 -218 89 -75 22 -106 51 -106
103 0 98 123 134 249 71 l61 -31 20 24 19 23 -27 22 c-68 56 -221 72 -302 31z"/>
</g>
</svg>
